<svg xmlns="http://www.w3.org/2000/svg" viewBox="0 0 512 512">
  <defs>
    <linearGradient id="bg" x1="0%" y1="0%" x2="100%" y2="100%">
      <stop offset="0%" style="stop-color:#1a1a2e"/>
      <stop offset="100%" style="stop-color:#16213e"/>
    </linearGradient>
    <linearGradient id="accent" x1="0%" y1="0%" x2="100%" y2="100%">
      <stop offset="0%" style="stop-color:#4a9eff"/>
      <stop offset="100%" style="stop-color:#0066cc"/>
    </linearGradient>
  </defs>
  <!-- Background -->
  <rect width="512" height="512" rx="96" fill="url(#bg)"/>
  <!-- Wrench -->
  <path d="M180 140c-35 0-65 25-72 58l-8-3c-15-6-32 1-38 16s1 32 16 38l8 3c-2 8-2 16-2 24 0 44 36 80 80 80s80-36 80-80c0-8-1-16-3-24l100 100c12 12 32 12 44 0s12-32 0-44L285 208c8-14 12-30 12-48 0-55-45-100-100-100l-17 80z" fill="url(#accent)" opacity="0.9"/>
  <!-- Gear -->
  <path d="M380 280l-15-9c1-6 2-13 2-19s-1-13-2-19l15-9c5-3 7-9 5-15l-10-17c-2-5-8-7-14-5l-17 6c-9-8-19-14-30-18l-3-18c-1-6-6-10-12-10h-20c-6 0-11 4-12 10l-3 18c-11 4-21 10-30 18l-17-6c-5-2-12 0-14 5l-10 17c-2 5-1 12 5 15l15 9c-1 6-2 13-2 19s1 13 2 19l-15 9c-5 3-7 9-5 15l10 17c2 5 8 7 14 5l17-6c9 8 19 14 30 18l3 18c1 6 6 10 12 10h20c6 0 11-4 12-10l3-18c11-4 21-10 30-18l17 6c5 2 12 0 14-5l10-17c2-6 0-12-5-15zm-92 20c-22 0-40-18-40-40s18-40 40-40 40 18 40 40-18 40-40 40z" fill="#ffffff" opacity="0.95" transform="translate(80 120)"/>
</svg>
